<svg class="icon" style="width: 1em; height: 1em;vertical-align: middle;fill: currentColor;overflow: hidden;" viewBox="0 0 1024 1024" version="1.1" xmlns="http://www.w3.org/2000/svg" p-id="1366"><path d="M766.239402 749.433644l0-58.252729c41.119513-54.826699 65.106834-119.933533 65.106834-195.319477l0 0 0 0 0 0 0 0c0-71.959915-23.986297-140.492778-65.106834-191.892425l0-61.679781 0 3.427052c65.106834 61.679781 106.226347 150.772912 106.226347 250.146177l0 0 0 0 0 0 0 0C872.466772 595.23368 831.346235 684.32681 766.239402 749.433644L766.239402 749.433644 766.239402 749.433644zM766.239402 512.994654l17.133216 0c6.853082 0 13.706163-6.853082 13.706163-17.133216 0-6.853082-6.853082-17.133216-13.706163-17.133216l-17.133216 0L766.239402 512.994654zM512.667196 204.594725 512.667196 204.594725c10.280134 0 17.133216 6.853082 17.133216 17.133216l0 41.119513c0 6.853082-6.853082 17.133216-17.133216 17.133216l0 0L512.667196 204.594725 512.667196 204.594725zM766.239402 242.288209c-65.106834-65.106834-154.199964-102.799294-253.573229-102.799294l0 0 0 0 0 0 0 0 0 0 0 41.119513 0 0 0 0 0 0 0 0 0 0c89.093131 0 167.906128 34.266431 226.15988 92.520183 10.280134 10.280134 17.133216 20.560268 27.41335 30.840402L766.239402 242.288209 766.239402 242.288209zM766.239402 478.727199l0 34.266431-17.133216 0c-10.280134 0-17.133216-6.853082-17.133216-17.133216 0-6.853082 6.853082-17.133216 17.133216-17.133216L766.239402 478.727199 766.239402 478.727199zM766.239402 691.180915l0 58.252729c-65.106834 65.106834-154.199964 106.226347-250.146177 106.226347l0 0-3.427052 0 0 0 0 0 0 0 0-41.119513 0 0 0 0 0 0 3.427052 0 0 0c85.666078 0 164.480098-37.693484 222.732827-92.520183C749.106186 711.74016 755.960291 701.460026 766.239402 691.180915L766.239402 691.180915zM512.667196 787.127128 512.667196 787.127128c10.280134 0 17.133216-6.853082 17.133216-13.706163l0-41.119513c0-10.280134-6.853082-17.133216-17.133216-17.133216l0 0L512.667196 787.127128 512.667196 787.127128zM512.667196 605.513814l0-58.252729 41.119513 58.252729 41.119513-47.973618 0 0 0 0 41.119513-47.973618-123.359562-65.106834 0-41.119513 157.625994 85.666078c10.280134 3.427052 13.706163 13.706163 6.853082 23.986297 0 0 0 0-3.427052 3.427052l-54.826699 61.679781 0 0-54.826699 65.106834c-6.853082 6.853082-17.133216 6.853082-23.986297 0l-3.427052 0L512.667196 605.513814zM498.960009 221.72794c0-10.280134 3.427052-17.133216 13.706163-17.133216l0 75.386968c-10.280134-3.427052-13.706163-10.280134-13.706163-17.133216L498.960009 221.72794 498.960009 221.72794zM512.667196 139.487891c-95.946212 0-185.039343 41.119513-250.146177 102.799294l0 61.679781c10.280134-10.280134 17.133216-20.560268 27.41335-30.840402 58.252729-58.252729 137.066749-92.520183 222.732827-92.520183L512.667196 139.487891 512.667196 139.487891zM512.667196 403.341255l0 41.119513-20.560268-13.706163-3.427052 0-99.373265-54.826699 65.106834 92.520183 0 0 0 0 58.252729 78.812997 0 58.252729-85.666078-116.506481 0 0L317.347718 338.234421c-3.427052-10.280134-3.427052-20.560268 3.427052-23.986297 6.853082-3.427052 13.706163-3.427052 20.560268-3.427052l0 0 0 0 164.480098 89.093131 0 0L512.667196 403.341255 512.667196 403.341255zM512.667196 715.167213l0 71.959915c-10.280134 0-13.706163-6.853082-13.706163-13.706163l0-41.119513C498.960009 722.020294 502.387062 715.167213 512.667196 715.167213L512.667196 715.167213zM512.667196 814.540478c-85.666078 0-164.480098-37.693484-222.732827-92.520183-10.280134-10.280134-17.133216-20.560268-27.41335-30.840402l0 58.252729c65.106834 65.106834 154.199964 102.799294 250.146177 106.226347L512.667196 814.540478 512.667196 814.540478zM262.521019 512.994654l0-34.266431 17.133216 0c10.280134 0 17.133216 10.280134 17.133216 17.133216 0 10.280134-6.853082 17.133216-17.133216 17.133216L262.521019 512.994654zM262.521019 242.288209l0 61.679781c-41.119513 51.399647-65.106834 119.933533-65.106834 191.892425l0 0 0 0 0 0 0 0c0 75.386968 23.986297 140.492778 65.106834 195.319477l0 58.252729 0 0c-65.106834-65.106834-106.226347-154.199964-106.226347-253.573229l0 0 0 0 0 0 0 0C156.294672 396.488173 197.414185 307.395042 262.521019 242.288209L262.521019 242.288209 262.521019 242.288209zM262.521019 478.727199l-17.133216 0c-6.853082 0-17.133216 10.280134-17.133216 17.133216 0 10.280134 10.280134 17.133216 17.133216 17.133216l17.133216 0L262.521019 478.727199z" p-id="1367"></path></svg>